<svg id="Layer_1" data-name="Layer 1" xmlns="http://www.w3.org/2000/svg" viewBox="0 0 1256.74 540.36"><defs><style>.cls-1,.cls-2,.cls-5,.cls-6{font-size:263px;}.cls-1,.cls-3,.cls-5{fill:#29abe2;}.cls-1,.cls-2{font-family:Guevara;}.cls-3,.cls-4{fill-rule:evenodd;}.cls-5,.cls-6{font-family:Silom;}</style></defs><title>THORLOGO2</title><text class="cls-1" transform="translate(387.94 498.28) scale(0.99 1)">Thor</text><text class="cls-2" transform="translate(379 495.28) scale(0.99 1)">Thor</text><path class="cls-3" d="M163.84,44.57C125.5,53,100.3,79.68,95.73,116.82c-2.92,22.79,3.66,46.14,16.07,58.09l5.48,5.14,6.21-4.59c9.49-7.35,28.85-15.81,42.73-18.75,28.3-6.07,48.2-2.58,96,16.73,21.18,8.45,40,14.89,47.48,16.17l12.41,1.84v37.87h6c8.4,0,14.06,6.25,14.06,15.63,0,3.86.55,6.61,1.09,6.06,2.92-3.12,6.58-23.16,7.31-41,.73-19.12.91-20.22,5.29-22.8,5.66-3.49,10.05-12.5,10.05-20.59,0-5.14-.37-5.69-2.2-2.94-4,5.33-15.33,8.64-28.3,8.46-17.34-.18-23-2.76-8.4-3.86,6.39-.37,12.05-1.29,12.6-2,.73-.55,0-3.13-1.46-5.33-1.64-2.39-4.93-10.11-7.49-17.1-2.55-7.17-5.11-14.34-5.84-16-1.64-4.23-21.18-10.3-37.61-11.77-6.94-.73-12.24-1.65-11.87-2,.55-.55,8.58-1.47,17.89-2.21l17-1.28-9.67-2.21c-13.33-3.12-43.1-2.76-56.06.55-6,1.47-16.62,5.7-23.74,9L208,124.17l8.95-7.9c19.17-17.1,44.19-25.74,71.76-24.45,9.31.36,17,.18,17-.55,0-2.58-18.08-21.33-25.75-26.66-7.67-5.15-8.21-5.33-31.59-5.33-36.15,0-61.9,9-84.36,29-5.84,5.34-9.86,8.28-9.12,6.81,4.74-8.46,17.52-23.35,24.65-28.68,9.49-7.35,8.76-7.91-3.11-1.84a123.68,123.68,0,0,0-53.5,53.49c-8.58,16.73-9.49,12.32-1.82-9.55,9.12-26.66,25.74-45.59,52-59.75,11.14-5.88,12.24-6.8,7.49-6.8C177.72,42,170.05,43.29,163.84,44.57Z" transform="translate(-26 -34)"/><path class="cls-3" d="M74.37,114.43c-14.06,7-27,19.48-33.41,32-4.93,9.93-11,33.46-11,43v7.35l8.4-7.9c11.69-10.85,31.77-20,46.93-21.51,6.75-.55,12.23-1.65,12.23-2.57,0-2.76-9.68-12.87-15.16-15.63-2.92-1.65-9.31-3.68-13.87-4.41l-8.4-1.47,10.41-.19c5.66,0,12.41.56,15,1.66l4.75,1.84V131.34c0-8.27.54-16.91,1.09-19.3C93,106.34,89.53,106.71,74.37,114.43Z" transform="translate(-26 -34)"/><path class="cls-3" d="M78.69,182.08c-11,3.67-27.39,14-32.68,20.4C43.09,206,47.65,224,55.32,239.25c4.75,9.56,5.84,10.66,7.12,7.53a27.49,27.49,0,0,0,1.46-7.53c.19-5.33,4.39-8.46,12.6-9.75l6.76-1.1.91-16.54c.73-12.32,2-18.57,5.11-24.45C95.13,176,95.67,176.19,78.69,182.08Z" transform="translate(-26 -34)"/><path class="cls-3" d="M100.17,230.35c-1.46.37-10.59,1.66-20.08,2.94-23.19,3-23.74,3.31-23.74,15.26,0,7.91.73,10.3,4.57,13.61,2.55,2.2,4.56,5.14,4.56,6.25.37,8.27,5.66,31.43,8.77,37.68,4.2,8.09,14.6,18.2,22.09,21,15.34,6.06,41.27,5.14,56.06-2.21,15.15-7.35,26.29-21.51,34.14-43,6.94-19.49,13.33-21,18.63-4.23,11.87,36.95,32.5,53.31,67,53.31,13.88,0,17.53-.55,26.29-5,9.86-5,19-14.7,22.83-24.63.91-2.39,2.92-11.4,4.2-20,2.19-13.23,3.28-16.54,7.3-19.67,3.84-3.12,4.75-5.33,4.75-11.94,0-4.6-.73-9.38-1.65-10.85-2.19-3.31-40.53-9.19-61.71-9.19a223.58,223.58,0,0,0-54.42,6.62c-15,3.67-31.58,3.49-51.12-1.11C153.49,231.46,107.84,228.33,100.17,230.35ZM159.7,246.9c11.69,4.78,13.51,7.54,13.51,19.48,0,20.41-10.77,40.08-26.29,48-14.43,7.36-42.36,6.07-53.14-2.57-8.21-6.43-10.59-13.79-11.5-34.74-.91-21.88.18-25.74,9.31-30.52C103.46,240.46,144.73,240.65,159.7,246.9Zm136-2.76a31.78,31.78,0,0,1,11,6.62c4,4.41,4.38,6.06,4.2,23.34-.18,34.56-8.95,44.49-40,44.49-14.06,0-17.89-.73-25.56-4.59-14.79-7.73-23.37-22.8-25.93-46.33-.91-9.56-.73-10.66,3.65-14.89,8-7.35,19.9-10.29,44.19-10.29C279.3,242.3,292.08,243.22,295.73,244.14Z" transform="translate(-26 -34)"/><path class="cls-3" d="M55.2,287.23c.55,15.62,0,26.28-2.38,40.44-2.73,16.17-2.92,21.51-1.27,33.64,2.55,18.38,7.67,32.17,17.34,46.69l7.67,11.58.55-7.9c.36-4.23-.73-12.87-2.37-19.12-1.46-6.07-2.38-11.58-2-11.95,1.09-1.1,9.67,18.57,13,29.41,3.11,10.85,3.65,31.07.73,36.58-2.92,5.33-1.09,5.7,5.84.92,3.47-2.2,8-7.72,10.23-12.31l4-8.28.18,8.64a42.6,42.6,0,0,1-3.1,15.08l-3.11,6.62,7.12,10.29c7.85,11.4,20.27,21.51,35.61,29.23,11.87,5.88,20.08,13.23,20.08,17.83s4.75,4,10.05-1.1l4.38-4.42,2,6.25a38.28,38.28,0,0,0,18.44,21c9.31,4.78,10.59,4.6,10.41-1.65-.37-12.14,10.41-21.88,44-40.45,16.07-8.82,30.86-22.24,35.61-32.35,2.74-5.7,2.74-6.8.18-11.76a37.14,37.14,0,0,1-2.55-14.34c.18-8.46.18-8.64,2-3.31a31.87,31.87,0,0,0,14.61,16.73c4.93,2.57,5.11,2.57,3.29-2-2.56-7-2.19-25.92.73-37.14,2.37-8.82,13.88-36,15-35.11.18.37-1.28,6.8-3.1,14.34-2,7.54-3.29,17.1-3.11,21.14l.55,7.35L323.43,406c16.8-25.19,20.09-46.88,14.06-90.63-2.56-19.85-2.92-26.1-1.1-36.21,1.1-6.62,1.65-12.32,1.1-12.87-2.19-2.21-4.56,4-7.12,18.93-2.74,16-5.66,23.9-11.87,31.81-1.83,2.39-3.83,8.08-4.56,12.86-3.47,24.08-18.81,59.56-32.14,74.82-6,6.8-8.95,8.64-17.35,10.3-5.66,1.28-17.89,1.83-27.39,1.47-12.6-.37-17.16,0-17.16,1.65,0,2.94,12.23,15.26,15,15.26,1.1,0,1.65.55.91,1.1-2.92,2.94-25-16.18-25-21.87,0-1.11,3.47-5.34,7.85-9.2,4.38-4,6.21-6.61,4-5.88-11.51,4.05-29.58,5.15-42.36,2.39-7.31-1.47-13.33-2-13.33-1.1,0,.73,3.28,3.68,7.3,6.25,4,2.76,7.3,5.88,7.3,7,0,4.6-9.13,15.08-16.61,19.49l-8,4.41,7.86-7.35c4.19-4.23,7.66-9,7.66-10.85,0-2.75-1.27-3.12-11.32-2-6.39.74-18.44.37-26.84-.73-13.69-1.48-16.07-2.39-21.54-7.73-13.33-12.86-25.93-39.89-33.6-71.32-2.19-9.56-6-20.41-8.4-24.08S65.24,298.62,63.6,290C57.75,258.92,53.92,257.63,55.2,287.23Z" transform="translate(-26 -34)"/><path class="cls-3" d="M196,354.21l-.07,0a2.13,2.13,0,0,1-1.08-1,25.16,25.16,0,0,0-1.8-2.1,20.15,20.15,0,0,0-5.25-4.31c-.65-.33-2.23-1-7.35-1a54,54,0,0,0-9.05.76c-7.27,1.32-13.12,2.37-21.34,5.32a153.78,153.78,0,0,0-14.55,6.31c-7.8,3.66-14.23,7-18.92,9.51a3.88,3.88,0,0,1-1.54.74,3.19,3.19,0,0,0-.55.29,4.24,4.24,0,0,1-.86.83,4.86,4.86,0,0,0-.69,1.59c.07.72.13,1.45.15,2.18.83.45,1.73.92,2.69,1.4,20.63,10.11,43.45,10.85,68.29,2.21l11.73-4C195.83,366.62,195.92,360.42,196,354.21Z" transform="translate(-26 -34)"/><polygon class="cls-3" points="86.95 337.03 82.38 374.15 101.56 382.78 110.69 343.94 86.95 337.03"/><path class="cls-3" d="M195.57,354.1l.08,0a2.23,2.23,0,0,0,1.14-1.05c.44-.54,1.08-1.29,1.91-2.14a21.49,21.49,0,0,1,5.58-4.38c.7-.33,2.38-1.05,7.81-1a59,59,0,0,1,9.62.77c7.73,1.34,13.95,2.41,22.68,5.4,4.88,1.67,8.47,3.28,15.46,6.42,8.28,3.73,15.12,7.11,20.11,9.67a4.23,4.23,0,0,0,1.63.76,3.49,3.49,0,0,1,.58.29,4.11,4.11,0,0,0,.92.84,4.68,4.68,0,0,1,.73,1.62c-.07.74-.13,1.47-.16,2.22-.88.46-1.84.94-2.85,1.43-21.93,10.28-46.18,11-72.57,2.24L195.77,373C195.73,366.72,195.63,360.41,195.57,354.1Z" transform="translate(-26 -34)"/><polygon class="cls-3" points="257.59 336.7 261.61 374.41 244.75 383.18 236.72 343.72 257.59 336.7"/><path class="cls-3" d="M136.42,360.22c.5,3.73,23.9,3.6,70.71,3.34,34.59-.19,51.9-.34,52.28-3,.65-4.59-31.19-16.83-65.86-15.93C163.75,345.39,135.83,355.76,136.42,360.22Z" transform="translate(-26 -34)"/><path class="cls-4" d="M159.84,36.57C121.5,45,96.3,71.68,91.73,108.82c-2.92,22.79,3.66,46.14,16.07,58.09l5.48,5.14,6.21-4.59c9.49-7.35,28.85-15.81,42.73-18.75,28.3-6.07,48.2-2.58,96,16.73,21.18,8.45,40,14.89,47.48,16.17l12.41,1.84v37.87h6c8.4,0,14.06,6.25,14.06,15.63,0,3.86.55,6.61,1.09,6.06,2.92-3.12,6.58-23.16,7.31-41,.73-19.12.91-20.22,5.29-22.8,5.66-3.49,10.05-12.5,10.05-20.59,0-5.14-.37-5.69-2.2-2.94-4,5.33-15.33,8.64-28.3,8.46-17.34-.18-23-2.76-8.4-3.86,6.39-.37,12.05-1.29,12.6-2,.73-.55,0-3.13-1.46-5.33-1.64-2.39-4.93-10.11-7.49-17.1-2.55-7.17-5.11-14.34-5.84-16-1.64-4.23-21.18-10.3-37.61-11.77-6.94-.73-12.24-1.65-11.87-2,.55-.55,8.58-1.47,17.89-2.21l17-1.28-9.67-2.21c-13.33-3.12-43.1-2.76-56.06.55-6,1.47-16.62,5.7-23.74,9L204,116.17l8.95-7.9c19.17-17.1,44.19-25.74,71.76-24.45,9.31.36,17,.18,17-.55,0-2.58-18.08-21.33-25.75-26.66-7.67-5.15-8.21-5.33-31.59-5.33-36.15,0-61.9,9-84.36,29-5.84,5.34-9.86,8.28-9.12,6.81,4.74-8.46,17.52-23.35,24.65-28.68,9.49-7.35,8.76-7.91-3.11-1.84a123.68,123.68,0,0,0-53.5,53.49c-8.58,16.73-9.49,12.32-1.82-9.55,9.12-26.66,25.74-45.59,52-59.75,11.14-5.88,12.24-6.8,7.49-6.8C173.72,34,166.05,35.29,159.84,36.57Z" transform="translate(-26 -34)"/><path class="cls-4" d="M70.37,106.43c-14.06,7-27,19.48-33.41,32-4.93,9.93-11,33.46-11,43v7.35l8.4-7.9c11.69-10.85,31.77-20,46.93-21.51,6.75-.55,12.23-1.65,12.23-2.57,0-2.76-9.68-12.87-15.16-15.63-2.92-1.65-9.31-3.68-13.87-4.41l-8.4-1.47,10.41-.19c5.66,0,12.41.56,15,1.66l4.75,1.84V123.34c0-8.27.54-16.91,1.09-19.3C89,98.34,85.53,98.71,70.37,106.43Z" transform="translate(-26 -34)"/><path class="cls-4" d="M74.69,174.08c-10.95,3.67-27.39,14-32.68,20.4C39.09,198,43.65,216,51.32,231.25c4.75,9.56,5.84,10.66,7.12,7.53a27.49,27.49,0,0,0,1.46-7.53c.19-5.33,4.39-8.46,12.6-9.75l6.76-1.1.91-16.54c.73-12.32,2-18.57,5.11-24.45C91.13,168,91.67,168.19,74.69,174.08Z" transform="translate(-26 -34)"/><path class="cls-4" d="M96.17,222.35c-1.46.37-10.59,1.66-20.08,2.94-23.19,3-23.74,3.31-23.74,15.26,0,7.91.73,10.3,4.57,13.61,2.55,2.2,4.56,5.14,4.56,6.25.37,8.27,5.66,31.43,8.77,37.68,4.2,8.09,14.6,18.2,22.09,21,15.34,6.06,41.27,5.14,56.06-2.21,15.15-7.35,26.29-21.51,34.14-43,6.94-19.49,13.33-21,18.63-4.23,11.87,36.95,32.5,53.31,67,53.31,13.88,0,17.53-.55,26.29-5,9.86-5,19-14.7,22.83-24.63.91-2.39,2.92-11.4,4.2-20,2.19-13.23,3.28-16.54,7.3-19.67,3.84-3.12,4.75-5.33,4.75-11.94,0-4.6-.73-9.38-1.65-10.85-2.19-3.31-40.53-9.19-61.71-9.19a223.58,223.58,0,0,0-54.42,6.62c-15,3.67-31.58,3.49-51.12-1.11C149.49,223.46,103.84,220.33,96.17,222.35ZM155.7,238.9c11.69,4.78,13.51,7.54,13.51,19.48,0,20.41-10.77,40.08-26.29,48-14.43,7.36-42.36,6.07-53.14-2.57-8.21-6.43-10.59-13.79-11.5-34.74-.91-21.88.18-25.74,9.31-30.52C99.46,232.46,140.73,232.65,155.7,238.9Zm136-2.76a31.78,31.78,0,0,1,11,6.62c4,4.41,4.38,6.06,4.2,23.34-.18,34.56-8.95,44.49-40,44.49-14.06,0-17.89-.73-25.56-4.59-14.79-7.73-23.37-22.8-25.93-46.33-.91-9.56-.73-10.66,3.65-14.89,8-7.35,19.9-10.29,44.19-10.29C275.3,234.3,288.08,235.22,291.73,236.14Z" transform="translate(-26 -34)"/><path class="cls-4" d="M51.2,279.23c.55,15.62,0,26.28-2.38,40.44-2.73,16.17-2.92,21.51-1.27,33.64,2.55,18.38,7.67,32.17,17.34,46.69l7.67,11.58.55-7.9c.36-4.23-.73-12.87-2.37-19.12-1.46-6.07-2.38-11.58-2-11.95,1.09-1.1,9.67,18.57,13,29.41,3.11,10.85,3.65,31.07.73,36.58-2.92,5.33-1.09,5.7,5.84.92,3.47-2.2,8-7.72,10.23-12.31l4-8.28.18,8.64a42.6,42.6,0,0,1-3.1,15.08l-3.11,6.62,7.12,10.29c7.85,11.4,20.27,21.51,35.61,29.23,11.87,5.88,20.08,13.23,20.08,17.83s4.75,4,10.05-1.1l4.38-4.42,2,6.25a38.28,38.28,0,0,0,18.44,21c9.31,4.78,10.59,4.6,10.41-1.65-.37-12.14,10.41-21.88,44-40.45,16.07-8.82,30.86-22.24,35.61-32.35,2.74-5.7,2.74-6.8.18-11.76a37.14,37.14,0,0,1-2.55-14.34c.18-8.46.18-8.64,2-3.31a31.87,31.87,0,0,0,14.61,16.73c4.93,2.57,5.11,2.57,3.29-2-2.56-7-2.19-25.92.73-37.14,2.37-8.82,13.88-36,15-35.11.18.37-1.28,6.8-3.1,14.34-2,7.54-3.29,17.1-3.11,21.14l.55,7.35L319.43,398c16.8-25.19,20.09-46.88,14.06-90.63-2.56-19.85-2.92-26.1-1.1-36.21,1.1-6.62,1.65-12.32,1.1-12.87-2.19-2.21-4.56,4-7.12,18.93-2.74,16-5.66,23.9-11.87,31.81-1.83,2.39-3.83,8.08-4.56,12.86-3.47,24.08-18.81,59.56-32.14,74.82-6,6.8-8.95,8.64-17.35,10.3-5.66,1.28-17.89,1.83-27.39,1.47-12.6-.37-17.16,0-17.16,1.65,0,2.94,12.23,15.26,15,15.26,1.1,0,1.65.55.91,1.1-2.92,2.94-25-16.18-25-21.87,0-1.11,3.47-5.34,7.85-9.2,4.38-4,6.21-6.61,4-5.88-11.51,4.05-29.58,5.15-42.36,2.39-7.31-1.47-13.33-2-13.33-1.1,0,.73,3.28,3.68,7.3,6.25,4,2.76,7.3,5.88,7.3,7,0,4.6-9.13,15.08-16.61,19.49l-8,4.41,7.86-7.35c4.19-4.23,7.66-9,7.66-10.85,0-2.75-1.27-3.12-11.32-2-6.39.74-18.44.37-26.84-.73-13.69-1.48-16.07-2.39-21.54-7.73-13.33-12.86-25.93-39.89-33.6-71.32-2.19-9.56-6-20.41-8.4-24.08S61.24,290.62,59.6,282C53.75,250.92,49.92,249.63,51.2,279.23Z" transform="translate(-26 -34)"/><path class="cls-4" d="M192,346.21l-.07,0a2.13,2.13,0,0,1-1.08-1,25.16,25.16,0,0,0-1.8-2.1,20.15,20.15,0,0,0-5.25-4.31c-.65-.33-2.23-1-7.35-1a54,54,0,0,0-9.05.76c-7.27,1.32-13.12,2.37-21.34,5.32a153.78,153.78,0,0,0-14.55,6.31c-7.8,3.66-14.23,7-18.92,9.51a3.88,3.88,0,0,1-1.54.74,3.19,3.19,0,0,0-.55.29,4.24,4.24,0,0,1-.86.83,4.86,4.86,0,0,0-.69,1.59c.07.72.13,1.45.15,2.18.83.45,1.73.92,2.69,1.4,20.63,10.11,43.45,10.85,68.29,2.21l11.73-4C191.83,358.62,191.92,352.42,192,346.21Z" transform="translate(-26 -34)"/><polygon class="cls-4" points="82.95 329.03 78.38 366.15 97.56 374.78 106.69 335.94 82.95 329.03"/><path class="cls-4" d="M191.57,346.1l.08,0a2.23,2.23,0,0,0,1.14-1.05c.44-.54,1.08-1.29,1.91-2.14a21.49,21.49,0,0,1,5.58-4.38c.7-.33,2.38-1.05,7.81-1a59,59,0,0,1,9.62.77c7.73,1.34,13.95,2.41,22.68,5.4,4.88,1.67,8.47,3.28,15.46,6.42,8.28,3.73,15.12,7.11,20.11,9.67a4.23,4.23,0,0,0,1.63.76,3.49,3.49,0,0,1,.58.29,4.11,4.11,0,0,0,.92.84,4.68,4.68,0,0,1,.73,1.62c-.07.74-.13,1.47-.16,2.22-.88.46-1.84.94-2.85,1.43-21.93,10.28-46.18,11-72.57,2.24L191.77,365C191.73,358.72,191.63,352.41,191.57,346.1Z" transform="translate(-26 -34)"/><polygon class="cls-4" points="253.59 328.7 257.61 366.41 240.75 375.18 232.72 335.72 253.59 328.7"/><path class="cls-4" d="M132.42,352.22c.5,3.73,23.9,3.6,70.71,3.34,34.59-.19,51.9-.34,52.28-3,.65-4.59-31.19-16.83-65.86-15.93C159.75,337.39,131.83,347.76,132.42,352.22Z" transform="translate(-26 -34)"/><text class="cls-5" transform="translate(376.94 237.13) scale(0.93 1)">JAVA</text><text class="cls-6" transform="translate(371.94 232.01) scale(0.93 1)">JAVA</text></svg>